<svg version="1.1" id="Layer_1" xmlns="http://www.w3.org/2000/svg" xmlns:xlink="http://www.w3.org/1999/xlink" x="0px" y="0px"
	 width="100%" viewBox="0 0 512 512" enable-background="new 0 0 512 512" xml:space="preserve">
<path fill="#000000" opacity="1.000000" stroke="none" 
	d="
M308.000000,513.000000 
	C205.358261,513.000000 103.216515,513.000000 1.037387,513.000000 
	C1.037387,342.399902 1.037387,171.799789 1.037387,1.099841 
	C171.558426,1.099841 342.116913,1.099841 512.837708,1.099841 
	C512.837708,171.666534 512.837708,342.333252 512.837708,513.000000 
	C444.799774,513.000000 376.649872,513.000000 308.000000,513.000000 
M5.014899,200.454590 
	C5.060611,238.671310 5.106324,276.888031 5.024714,316.020935 
	C5.016896,352.452850 5.046952,388.884918 4.938891,425.316528 
	C4.928801,428.718262 5.757648,430.808350 9.133762,432.144714 
	C23.067251,437.659973 36.718052,443.952301 50.841896,448.906677 
	C66.000778,454.224091 81.958031,456.037781 98.919128,457.004730 
	C107.281052,456.957794 115.642975,456.910858 124.898338,456.954803 
	C131.798431,456.312592 138.752975,456.020294 145.587448,454.956543 
	C160.554047,452.627106 175.709213,450.886322 190.343124,447.160278 
	C232.817932,436.345520 275.037689,424.533539 317.429657,413.387238 
	C340.597382,407.295624 364.229095,403.715332 389.032074,401.939453 
	C399.234131,401.889740 409.436188,401.840027 420.487000,402.016388 
	C428.308716,403.173248 436.165588,404.133606 443.945374,405.524872 
	C464.746857,409.244904 484.336426,416.455017 502.919800,426.470825 
	C504.701477,427.431091 506.596008,428.181946 508.918457,429.251129 
	C508.918457,390.395752 508.918457,352.469299 508.993683,313.514496 
	C508.940308,275.315430 508.886932,237.116348 508.979218,198.000519 
	C508.986053,161.845215 508.946198,125.689758 509.074982,89.534897 
	C509.087311,86.073776 508.156708,84.249107 504.833008,82.852875 
	C497.618469,79.822166 490.713104,76.063225 483.542480,72.918739 
	C463.955536,64.329422 443.244476,59.462044 422.085754,58.302197 
	C403.035339,57.257919 383.769806,56.491280 364.742920,59.983269 
	C348.736389,62.920937 332.572479,65.163391 316.738495,68.835686 
	C299.367981,72.864342 282.300201,78.195145 265.092072,82.927841 
	C245.996490,88.179626 226.970764,93.713974 207.763245,98.520355 
	C194.366013,101.872795 180.755890,104.436493 167.161560,106.918076 
	C157.530991,108.676086 147.768967,109.715851 138.063492,111.060875 
	C133.702835,111.665199 129.336990,112.231956 124.479706,112.131805 
	C115.679932,112.143547 106.880157,112.155289 97.297531,112.259567 
	C95.119591,112.173279 92.913231,112.281258 90.768562,111.967514 
	C80.771759,110.505096 70.688637,109.406952 60.827972,107.287292 
	C41.198029,103.067635 22.887630,95.204720 5.150241,85.355507 
	C5.150241,123.616936 5.150241,161.527542 5.014899,200.454590 
z"/>
<path fill="#258C05" opacity="1.000000" stroke="none" 
	d="
M508.918457,314.542847 
	C508.918457,352.469299 508.918457,390.395752 508.918457,429.251129 
	C506.596008,428.181946 504.701477,427.431091 502.919800,426.470825 
	C484.336426,416.455017 464.746857,409.244904 443.945374,405.524872 
	C436.165588,404.133606 428.308716,403.173248 419.717133,401.755188 
	C408.669098,401.609192 398.390930,401.724365 388.112762,401.839539 
	C364.229095,403.715332 340.597382,407.295624 317.429657,413.387238 
	C275.037689,424.533539 232.817932,436.345520 190.343124,447.160278 
	C175.709213,450.886322 160.554047,452.627106 145.587448,454.956543 
	C138.752975,456.020294 131.798431,456.312592 124.125580,456.647644 
	C114.896240,456.515259 106.439674,456.689972 97.983101,456.864685 
	C81.958031,456.037781 66.000778,454.224091 50.841896,448.906677 
	C36.718052,443.952301 23.067251,437.659973 9.133762,432.144714 
	C5.757648,430.808350 4.928801,428.718262 4.938891,425.316528 
	C5.046952,388.884918 5.016896,352.452850 5.404479,315.669647 
	C49.910606,340.540741 97.385887,346.744232 147.136475,340.390961 
	C177.919922,336.459869 207.833878,328.718872 237.645187,320.411652 
	C280.066925,308.590302 322.109283,295.177246 366.020844,289.526337 
	C397.202118,285.513702 428.131744,286.180969 458.722717,294.115997 
	C476.371124,298.693848 492.839844,306.128906 508.918457,314.542847 
z"/>
<path fill="#E97403" opacity="1.000000" stroke="none" 
	d="
M124.973495,112.815750 
	C129.336990,112.231956 133.702835,111.665199 138.063492,111.060875 
	C147.768967,109.715851 157.530991,108.676086 167.161560,106.918076 
	C180.755890,104.436493 194.366013,101.872795 207.763245,98.520355 
	C226.970764,93.713974 245.996490,88.179626 265.092072,82.927841 
	C282.300201,78.195145 299.367981,72.864342 316.738495,68.835686 
	C332.572479,65.163391 348.736389,62.920937 364.742920,59.983269 
	C383.769806,56.491280 403.035339,57.257919 422.085754,58.302197 
	C443.244476,59.462044 463.955536,64.329422 483.542480,72.918739 
	C490.713104,76.063225 497.618469,79.822166 504.833008,82.852875 
	C508.156708,84.249107 509.087311,86.073776 509.074982,89.534897 
	C508.946198,125.689758 508.986053,161.845215 508.584808,198.355606 
	C464.400879,173.620499 417.224182,167.422455 367.837860,173.545135 
	C335.551361,177.547867 304.237518,185.875320 273.002594,194.643219 
	C231.888519,206.184265 191.070480,218.991699 148.495132,224.470596 
	C118.692421,228.305847 89.078903,228.019989 59.696026,221.018631 
	C40.468536,216.437103 22.486794,208.767975 5.150241,199.438156 
	C5.150241,161.527542 5.150241,123.616936 5.150241,85.355507 
	C22.887630,95.204720 41.198029,103.067635 60.827972,107.287292 
	C70.688637,109.406952 80.771759,110.505096 90.768562,111.967514 
	C92.913231,112.281258 95.119591,112.173279 98.024605,112.443298 
	C107.492287,112.689934 116.232887,112.752838 124.973495,112.815750 
z"/>
<path fill="#F4F5F3" opacity="1.000000" stroke="none" 
	d="
M5.082570,199.946381 
	C22.486794,208.767975 40.468536,216.437103 59.696026,221.018631 
	C89.078903,228.019989 118.692421,228.305847 148.495132,224.470596 
	C191.070480,218.991699 231.888519,206.184265 273.002594,194.643219 
	C304.237518,185.875320 335.551361,177.547867 367.837860,173.545135 
	C417.224182,167.422455 464.400879,173.620499 508.511963,198.813980 
	C508.886932,237.116348 508.940308,275.315430 508.956055,314.028687 
	C492.839844,306.128906 476.371124,298.693848 458.722717,294.115997 
	C428.131744,286.180969 397.202118,285.513702 366.020844,289.526337 
	C322.109283,295.177246 280.066925,308.590302 237.645187,320.411652 
	C207.833878,328.718872 177.919922,336.459869 147.136475,340.390961 
	C97.385887,346.744232 49.910606,340.540741 5.468141,315.211548 
	C5.106324,276.888031 5.060611,238.671310 5.082570,199.946381 
M224.193283,305.363403 
	C232.716187,310.054962 241.783142,311.074463 251.242828,309.323242 
	C279.647766,304.064880 304.467010,277.526459 307.865234,248.799454 
	C311.441742,218.565475 288.247101,197.308716 259.230621,205.456497 
	C230.756546,213.451981 212.811310,232.715622 206.908859,261.854828 
	C203.383392,279.259491 207.751282,294.576874 224.193283,305.363403 
z"/>
<path fill="#74B461" opacity="1.000000" stroke="none" 
	d="
M388.572418,401.889496 
	C398.390930,401.724365 408.669098,401.609192 419.292755,401.642151 
	C409.436188,401.840027 399.234131,401.889740 388.572418,401.889496 
z"/>
<path fill="#EEA762" opacity="1.000000" stroke="none" 
	d="
M124.726601,112.473778 
	C116.232887,112.752838 107.492287,112.689934 98.416031,112.397034 
	C106.880157,112.155289 115.679932,112.143547 124.726601,112.473778 
z"/>
<path fill="#59A641" opacity="1.000000" stroke="none" 
	d="
M98.451111,456.934692 
	C106.439674,456.689972 114.896240,456.515259 123.678856,456.602234 
	C115.642975,456.910858 107.281052,456.957794 98.451111,456.934692 
z"/>
<path fill="#163486" opacity="1.000000" stroke="none" 
	d="
M223.871857,305.182281 
	C207.751282,294.576874 203.383392,279.259491 206.908859,261.854828 
	C212.811310,232.715622 230.756546,213.451981 259.230621,205.456497 
	C288.247101,197.308716 311.441742,218.565475 307.865234,248.799454 
	C304.467010,277.526459 279.647766,304.064880 251.242828,309.323242 
	C241.783142,311.074463 232.716187,310.054962 223.871857,305.182281 
M242.283279,216.073578 
	C240.463409,219.354004 237.437683,221.002014 233.509689,222.481522 
	C233.672653,222.862518 233.835617,223.243515 233.187958,223.676819 
	C230.095108,226.640228 226.985275,229.586502 223.944931,232.602844 
	C223.725845,232.820190 224.013687,233.548508 223.307480,233.839096 
	C221.138885,237.063263 218.970291,240.287430 216.283798,243.940628 
	C215.875473,244.960922 215.467148,245.981216 214.508865,247.696915 
	C214.689133,250.167175 215.542755,252.438614 212.503006,254.448776 
	C211.096909,255.378586 211.342239,258.882812 210.948013,261.238129 
	C210.692184,262.766602 210.667191,264.332214 210.475845,265.873383 
	C210.321838,267.113708 210.073471,268.342346 209.919235,269.527618 
	C209.919235,269.527618 209.866699,269.479340 209.771957,270.369446 
	C209.891968,273.864166 211.069321,277.164368 211.210403,280.771973 
	C211.362778,284.668732 214.754272,288.438812 216.991516,292.008118 
	C216.991516,292.008118 216.736664,292.268036 216.817429,293.091187 
	C218.182541,293.663086 219.547638,294.234985 220.912750,294.806885 
	C221.825119,297.356262 223.577454,300.870911 225.094803,300.772217 
	C228.413330,300.556427 230.031311,301.937103 232.184875,304.626740 
	C233.123642,304.743347 234.062393,304.859955 235.728149,305.396088 
	C237.619171,305.038727 239.596878,302.015442 241.421265,305.756500 
	C241.687820,306.303070 243.763702,305.967316 245.508453,306.132599 
	C245.672653,306.083099 245.836838,306.033569 246.749298,306.273376 
	C249.325333,302.821533 252.950211,305.420776 256.554901,304.578766 
	C257.036530,304.294739 257.518127,304.010712 258.691772,303.926147 
	C261.397156,302.427155 263.224121,299.030304 267.266846,300.304169 
	C267.943909,300.517517 269.206329,298.873169 270.637512,298.020477 
	C270.637512,298.020477 271.002167,297.766632 271.717377,297.866455 
	C273.274109,296.223053 274.665283,294.365051 276.435944,292.998901 
	C278.083344,291.727814 280.134979,290.980713 282.706635,289.743530 
	C284.189087,286.987915 284.676666,283.362671 288.952881,283.077454 
	C289.407684,283.047180 289.743744,281.236359 290.894836,280.132019 
	C291.599548,278.791779 292.303772,277.451294 293.009094,276.111389 
	C293.580231,275.026337 294.034119,273.855133 294.751129,272.876862 
	C295.956238,271.232513 297.789215,269.896790 298.517517,268.092010 
	C299.478363,265.711090 299.468109,262.957489 300.179230,260.450256 
	C300.698029,258.620911 302.042236,256.997223 302.407257,255.160385 
	C302.795624,253.205978 301.697815,250.645157 302.594330,249.162781 
	C305.008545,245.170929 305.708405,241.722168 302.172699,238.094681 
	C301.851685,237.765350 302.685883,236.510010 302.501526,235.812012 
	C301.802429,233.164703 300.951965,230.553223 300.041656,227.969376 
	C299.861450,227.457932 298.707977,227.020752 298.775940,226.729813 
	C300.454376,219.544769 292.190216,219.328918 290.279144,214.695053 
	C290.279144,214.695053 290.334961,214.608826 290.164795,213.938416 
	C288.292511,213.317993 286.420197,212.697571 285.263824,212.314377 
	C283.119293,211.088989 281.564178,210.200409 279.477783,209.223740 
	C279.302338,209.185699 279.126923,209.147675 278.545013,208.586197 
	C276.891541,208.965561 274.513794,210.239777 273.700348,209.581345 
	C267.728302,204.747437 262.040100,210.319443 256.185120,210.038727 
	C252.864105,209.879517 249.728241,214.968948 245.064941,214.540634 
	C244.702805,214.507370 244.251419,215.445541 243.395721,215.982758 
	C243.395721,215.982758 242.996750,216.187988 242.283279,216.073578 
z"/>
<path fill="#EBEEF0" opacity="1.000000" stroke="none" 
	d="
M255.994583,304.670868 
	C252.950211,305.420776 249.325333,302.821533 246.443329,305.797913 
	C246.280472,304.215698 246.423584,303.108917 246.566696,302.002167 
	C246.155426,301.963531 245.744156,301.924896 245.332886,301.886261 
	C245.222717,303.270782 245.112564,304.655304 245.002380,306.039825 
	C243.763702,305.967316 241.687820,306.303070 241.421265,305.756500 
	C239.596878,302.015442 237.619171,305.038727 235.285339,304.917908 
	C233.784943,304.335968 232.727341,304.232178 231.669754,304.128357 
	C230.031311,301.937103 228.413330,300.556427 225.094803,300.772217 
	C223.577454,300.870911 221.825119,297.356262 220.912750,294.806885 
	C219.547638,294.234985 218.182541,293.663086 217.021881,292.586395 
	C217.802917,292.014618 218.379486,291.947632 218.956055,291.880646 
	C218.511887,291.484222 218.067719,291.087799 217.623550,290.691376 
	C217.326675,291.215637 217.029785,291.739899 216.732880,292.264160 
	C214.754272,288.438812 211.362778,284.668732 211.210403,280.771973 
	C211.069321,277.164368 209.891968,273.864166 210.176544,270.035706 
	C211.414139,269.448639 212.247177,269.195374 213.037842,268.965820 
	C212.995483,268.989563 212.907578,269.030884 213.282379,269.128174 
	C215.139084,268.931366 216.620972,268.637299 218.532532,268.317017 
	C219.816330,268.208221 220.670441,268.125580 221.716736,268.000946 
	C222.273254,267.813965 222.637619,267.668976 223.413742,267.426575 
	C229.767868,265.816986 235.710205,264.304840 241.885757,262.951965 
	C242.397629,263.361084 242.676300,263.610901 242.647919,264.044250 
	C235.301529,268.217468 228.262177,272.207153 221.222824,276.196838 
	C221.458420,276.672272 221.694000,277.147705 221.929596,277.623138 
	C226.258209,275.669312 230.586838,273.715485 234.915451,271.761688 
	C235.100723,272.086731 235.286011,272.411743 235.471298,272.736786 
	C231.469360,276.422272 227.467438,280.107758 223.465500,283.793243 
	C223.986618,284.397705 224.507721,285.002167 225.028839,285.606598 
	C228.236496,283.228699 231.380020,280.754913 234.694626,278.536865 
	C235.580063,277.944336 236.988678,278.133667 238.059235,278.369995 
	C236.988129,280.466583 236.014923,282.157196 235.041702,283.847839 
	C235.702637,284.402374 236.363571,284.956879 237.024506,285.511414 
	C238.745712,283.207214 240.466934,280.903015 242.686768,278.717285 
	C243.518845,278.910248 243.852280,278.984711 244.123215,279.412598 
	C243.272888,281.947052 242.485092,284.128082 241.447815,286.589661 
	C240.021408,289.953613 238.844452,293.036926 237.419250,296.310791 
	C236.768280,297.659760 236.365555,298.818237 235.818283,300.098694 
	C235.619781,300.456299 235.565826,300.691833 235.511887,300.927399 
	C235.688004,300.631836 235.864120,300.336273 236.351837,299.931702 
	C237.443695,298.552368 238.223969,297.282043 239.141510,295.695984 
	C240.538208,292.928558 241.797638,290.476898 243.315567,287.802887 
	C245.124893,284.732666 246.675735,281.884827 248.421600,279.273315 
	C248.823181,279.862396 249.029739,280.215149 249.230743,281.018951 
	C249.044769,283.747894 248.864334,286.025818 248.683899,288.303711 
	C249.273468,288.414093 249.863037,288.524475 250.452606,288.634857 
	C251.830154,283.871094 253.207687,279.107361 254.702896,273.936676 
	C255.221054,281.631226 255.701019,288.758789 256.181000,295.886353 
	C256.870026,295.850677 257.559082,295.814972 258.248108,295.779297 
	C258.248108,287.241638 258.248108,278.703949 258.648560,270.125610 
	C259.315948,270.057922 259.582916,270.030884 259.971863,270.383545 
	C262.259460,277.454498 264.425110,284.145721 266.590729,290.836914 
	C267.175323,290.655396 267.759918,290.473846 268.344513,290.292297 
	C267.329132,285.169647 266.313721,280.047028 265.298340,274.924377 
	C265.731812,274.786346 266.165253,274.648285 266.598724,274.510254 
	C270.064819,278.336884 273.530945,282.163544 277.059875,286.308044 
	C278.025177,287.363129 278.927673,288.100372 279.976135,288.976929 
	C280.122070,289.116272 280.421997,289.386261 280.414673,289.461517 
	C280.407379,289.536774 280.667206,289.559387 281.001404,289.673859 
	C281.559937,289.859863 281.784302,289.931396 282.008667,290.002930 
	C280.134979,290.980713 278.083344,291.727814 276.435944,292.998901 
	C274.665283,294.365051 273.274109,296.223053 271.293091,297.594788 
	C270.538788,297.103516 270.208771,296.883972 269.878754,296.664429 
	C269.985260,297.138702 270.091766,297.612946 270.198273,298.087219 
	C269.206329,298.873169 267.943909,300.517517 267.266846,300.304169 
	C263.224121,299.030304 261.397156,302.427155 258.256683,303.593445 
	C257.212585,303.730774 256.603577,304.200806 255.994583,304.670868 
M234.014420,287.793701 
	C234.698715,286.742188 235.382996,285.690674 236.067291,284.639160 
	C235.662048,284.370087 235.256805,284.100983 234.851562,283.831879 
	C233.954590,285.011230 233.057602,286.190582 231.711105,287.751709 
	C231.604935,288.105011 231.498764,288.458344 231.392609,288.811646 
	C232.027176,288.641785 232.661728,288.471954 234.014420,287.793701 
M247.046402,294.444916 
	C246.867935,295.582611 246.689468,296.720276 246.511002,297.857971 
	C246.851135,297.967529 247.191284,298.077087 247.531418,298.186646 
	C247.967575,296.788483 248.403717,295.390350 249.159607,293.153595 
	C249.498108,291.371033 249.836594,289.588440 250.175095,287.805878 
	C249.571243,287.705780 248.967392,287.605682 248.363541,287.505585 
	C248.000671,289.616028 247.637802,291.726440 247.046402,294.444916 
M217.019867,280.138092 
	C216.210953,280.234161 215.402054,280.330231 214.593140,280.426331 
	C214.672302,280.799347 214.751465,281.172363 214.830627,281.545380 
	C215.563599,281.227020 216.296570,280.908661 217.019867,280.138092 
M227.885727,293.620605 
	C227.866028,293.850403 227.846329,294.080170 227.826614,294.309998 
	C227.956772,294.313843 228.086914,294.317719 228.217072,294.321564 
	C228.208923,294.090759 228.200790,293.859985 227.885727,293.620605 
M269.053467,292.319702 
	C268.773468,292.348785 268.493469,292.377838 268.213470,292.406891 
	C268.316132,292.639771 268.418762,292.872650 268.521362,293.105499 
	C268.788818,292.922455 269.056244,292.739410 269.053467,292.319702 
M229.529129,290.698242 
	C229.700958,290.812531 229.872787,290.926788 230.044617,291.041077 
	C229.937103,290.864990 229.829590,290.688904 229.529129,290.698242 
M219.726242,278.233612 
	C219.562622,278.365723 219.399002,278.497833 219.235397,278.629974 
	C219.421951,278.586884 219.608490,278.543823 219.726242,278.233612 
M223.601654,287.076996 
	C223.601654,287.076996 223.455688,286.866180 223.455688,286.866180 
	C223.455688,286.866180 223.472092,287.136810 223.601654,287.076996 
z"/>
<path fill="#EBEDEF" opacity="1.000000" stroke="none" 
	d="
M290.365784,214.644440 
	C292.190216,219.328918 300.454376,219.544769 298.775940,226.729813 
	C298.707977,227.020752 299.861450,227.457932 300.041656,227.969376 
	C300.951965,230.553223 301.802429,233.164703 302.501526,235.812012 
	C302.685883,236.510010 301.851685,237.765350 302.172699,238.094681 
	C305.708405,241.722168 305.008545,245.170929 302.594330,249.162781 
	C301.697815,250.645157 302.795624,253.205978 302.407257,255.160385 
	C302.042236,256.997223 300.698029,258.620911 300.179230,260.450256 
	C299.468109,262.957489 299.478363,265.711090 298.517517,268.092010 
	C297.789215,269.896790 295.956238,271.232513 294.751129,272.876862 
	C294.034119,273.855133 293.580231,275.026337 293.009094,276.111389 
	C292.303772,277.451294 291.599548,278.791779 290.319366,279.966003 
	C288.841797,279.389191 287.939667,278.978424 287.094055,278.173706 
	C286.756836,277.493774 286.363098,277.207794 285.986145,276.944397 
	C286.002869,276.967010 286.047638,277.001038 286.019928,276.692749 
	C285.336212,275.902527 284.680206,275.420624 283.863434,274.646759 
	C277.790100,270.264191 271.877563,266.173523 266.003418,261.995453 
	C266.041870,261.908020 266.097687,261.725311 266.182251,261.558838 
	C266.488831,261.091827 266.710785,260.791351 267.261078,260.592987 
	C275.390747,262.712006 283.192078,264.728912 291.312988,266.858765 
	C292.287689,266.910065 292.942810,266.848450 293.597900,266.786835 
	C293.603516,266.567474 293.609161,266.348114 293.614777,266.128754 
	C292.740723,265.829926 291.866638,265.531097 290.646973,265.072510 
	C283.159302,262.608246 276.017273,260.303772 269.664124,258.253845 
	C278.007965,257.730164 287.249451,257.150146 296.490936,256.570160 
	C296.479614,256.124176 296.468323,255.678192 296.457031,255.232224 
	C294.919983,255.132767 293.383759,255.018692 291.845795,254.936523 
	C286.224518,254.636185 280.602692,254.346481 274.988678,253.842773 
	C274.996307,253.632736 275.001190,253.212677 275.401062,253.125961 
	C282.526001,250.926437 289.251038,248.813629 296.209259,246.685226 
	C296.537537,246.259201 296.632629,245.848770 296.727722,245.438339 
	C296.455414,245.461639 296.183136,245.484940 295.489685,245.553040 
	C289.131073,246.942444 283.203522,248.334564 277.245728,249.582199 
	C276.313751,249.777374 275.244080,249.315170 274.606201,248.699280 
	C279.805328,245.340271 284.636383,242.438904 289.467438,239.537537 
	C289.142029,238.966049 288.816620,238.394547 288.491211,237.823059 
	C285.907776,239.013840 283.370941,240.332489 280.707520,241.303970 
	C280.055695,241.541733 278.989441,240.643234 278.460999,240.071960 
	C281.035248,237.606689 283.262207,235.336594 285.489166,233.066483 
	C285.102814,232.706635 284.716461,232.346771 284.330078,231.986908 
	C281.775116,233.595245 279.220154,235.203583 276.665192,236.811920 
	C276.482727,236.423157 276.300262,236.034393 276.117798,235.645630 
	C278.098175,232.088074 280.078583,228.530533 282.382080,224.909546 
	C283.846313,223.501068 284.987427,222.156036 286.128510,220.811020 
	C285.569824,220.485977 285.011139,220.160950 284.452454,219.835922 
	C283.643188,221.538925 282.833954,223.241928 281.678772,224.984833 
	C278.569702,228.089569 275.806519,231.154373 272.544952,234.558441 
	C268.840546,235.313828 270.218994,233.442307 270.663544,232.086105 
	C272.101501,227.699478 273.563721,223.320816 275.001221,218.964142 
	C274.985840,218.989182 274.954010,219.038620 275.303223,219.224106 
	C275.837891,218.925705 276.023315,218.441803 276.470673,217.751450 
	C277.824768,214.800598 278.916931,212.056213 280.009064,209.311813 
	C281.564178,210.200409 283.119293,211.088989 285.263824,212.314377 
	C286.420197,212.697571 288.292511,213.317993 289.961090,214.404205 
	C289.311371,215.449905 288.865356,216.029816 288.419342,216.609741 
	C288.662994,216.758774 288.906677,216.907806 289.150330,217.056839 
	C289.555481,216.252701 289.960632,215.448563 290.365784,214.644440 
M289.500946,227.337845 
	C288.522461,228.220840 287.543976,229.103821 286.251190,230.924759 
	C287.013550,230.668518 287.775879,230.412277 289.060822,229.907639 
	C289.667755,228.958252 290.274689,228.008865 291.080109,226.815170 
	C290.725250,226.850739 290.370422,226.886307 289.500946,227.337845 
M295.795197,235.411118 
	C296.121826,235.061859 296.448486,234.712601 296.775116,234.363342 
	C296.605927,234.090652 296.436737,233.817963 296.267548,233.545273 
	C293.431488,235.157867 290.595428,236.770477 287.759369,238.383087 
	C288.055267,238.872910 288.351196,239.362732 288.647095,239.852554 
	C290.832977,238.522491 293.018890,237.192413 295.795197,235.411118 
M299.278961,232.759506 
	C299.438141,232.630981 299.597321,232.502441 299.756500,232.373932 
	C299.575043,232.415802 299.393585,232.457687 299.278961,232.759506 
z"/>
<path fill="#EBEDEF" opacity="1.000000" stroke="none" 
	d="
M243.841507,215.932205 
	C244.251419,215.445541 244.702805,214.507370 245.064941,214.540634 
	C249.728241,214.968948 252.864105,209.879517 256.185120,210.038727 
	C262.040100,210.319443 267.728302,204.747437 273.700348,209.581345 
	C274.513794,210.239777 276.891541,208.965561 278.597168,209.150543 
	C277.419434,212.425323 276.189545,215.135773 274.862610,218.143860 
	C274.828369,218.640549 274.891174,218.839584 274.954010,219.038620 
	C274.954010,219.038620 274.985840,218.989182 274.653595,219.025146 
	C271.447388,224.370667 268.573425,229.680237 265.445679,234.988724 
	C264.853516,234.990494 264.515106,234.993332 264.202637,234.593353 
	C265.300232,228.304626 266.371979,222.418732 267.443695,216.532822 
	C266.949615,216.422501 266.455536,216.312180 265.961456,216.201843 
	C263.741730,223.786057 261.522003,231.370255 259.002838,239.977493 
	C258.399353,232.111404 257.882843,225.378922 257.366333,218.646439 
	C256.814056,218.675262 256.261749,218.704071 255.709457,218.732895 
	C255.709457,227.154160 255.709457,235.575439 255.450104,244.000610 
	C254.845001,244.013199 254.499252,244.021896 254.031494,243.643127 
	C251.916901,237.506699 249.924332,231.757767 247.914429,225.662079 
	C247.242081,223.600555 246.587051,221.885788 245.893494,219.870239 
	C245.569962,219.046310 245.284988,218.523148 244.934113,217.702026 
	C244.525970,216.913452 244.183731,216.422821 243.841507,215.932205 
M267.167450,213.698868 
	C266.946960,213.746902 266.726440,213.794952 266.505951,213.843018 
	C266.714081,213.884109 266.922211,213.925201 267.167450,213.698868 
z"/>
<path fill="#ECEEF0" opacity="1.000000" stroke="none" 
	d="
M223.001968,267.523987 
	C222.637619,267.668976 222.273254,267.813965 222.068420,267.483582 
	C220.822723,267.034393 219.417480,267.060577 217.659088,267.079041 
	C215.839813,267.724487 214.373688,268.377686 212.907578,269.030884 
	C212.907578,269.030884 212.995483,268.989563 212.629471,269.010254 
	C211.464630,269.212677 210.665787,269.394440 209.866959,269.576172 
	C210.073471,268.342346 210.321838,267.113708 210.475845,265.873383 
	C210.667191,264.332214 210.692184,262.766602 210.948013,261.238129 
	C211.342239,258.882812 211.096909,255.378586 212.503006,254.448776 
	C215.542755,252.438614 214.689133,250.167175 215.111572,247.324463 
	C216.076752,245.805206 216.439240,244.658401 216.801712,243.511597 
	C218.970291,240.287430 221.138885,237.063263 223.663193,233.914963 
	C224.018906,233.990829 223.963379,233.953918 224.173355,233.945496 
	C224.383331,233.937073 224.703766,234.223404 224.703766,234.223404 
	C224.703766,234.223404 224.614746,234.644791 224.739227,234.746399 
	C224.863724,234.848007 225.121155,235.040421 225.302628,235.244141 
	C225.998962,235.590912 226.513824,235.733994 227.251297,235.917358 
	C227.473907,235.957642 227.920059,236.033051 227.939117,236.269928 
	C227.958176,236.506790 227.993530,236.981766 228.060974,237.316696 
	C233.422348,241.759094 238.716293,245.866562 243.930573,250.446960 
	C243.795654,251.234802 243.740387,251.549713 243.282806,251.810410 
	C236.592453,250.255707 230.304382,248.755249 223.651428,247.131470 
	C222.311874,247.008163 221.337219,247.008163 220.362564,247.008163 
	C220.316193,247.273300 220.269821,247.538437 220.223450,247.803589 
	C221.485413,248.159332 222.747360,248.515091 224.340607,249.040375 
	C228.535812,250.608246 232.308487,252.444412 236.290863,253.274475 
	C239.847427,254.015778 243.635529,253.646133 247.268372,253.756653 
	C247.804901,253.992310 248.394547,254.238007 248.547073,254.202209 
	C247.720947,254.820129 247.331924,255.719543 246.539001,256.754272 
	C237.016312,256.889587 227.897491,256.889587 218.778671,256.889587 
	C218.754562,257.493286 218.730453,258.096985 218.706345,258.700653 
	C225.120575,259.142426 231.534821,259.584198 238.040985,260.263702 
	C238.066269,260.657776 237.999619,260.814087 237.535065,260.970123 
	C232.313400,262.416199 227.472946,263.811218 222.685806,265.369934 
	C222.043610,265.579041 221.670502,266.614594 221.172806,267.267456 
	C221.782532,267.352966 222.392242,267.438477 223.001968,267.523987 
z"/>
<path fill="#EAECEF" opacity="1.000000" stroke="none" 
	d="
M227.920059,236.033051 
	C227.920059,236.033051 227.473907,235.957642 227.197235,235.705353 
	C226.320755,235.315536 225.720963,235.177979 225.121155,235.040421 
	C225.121155,235.040421 224.863724,234.848007 224.489777,234.836533 
	C224.065018,234.534683 224.014191,234.244293 223.963379,233.953918 
	C223.963379,233.953918 224.018906,233.990829 224.042374,234.015045 
	C224.013687,233.548508 223.725845,232.820190 223.944931,232.602844 
	C226.985275,229.586502 230.095108,226.640228 233.595795,223.504837 
	C234.018372,222.940918 234.033096,222.548981 234.047806,222.157043 
	C237.437683,221.002014 240.463409,219.354004 242.728882,216.407745 
	C243.782974,217.161270 244.391495,217.580627 245.000000,218.000000 
	C245.284988,218.523148 245.569962,219.046310 245.561218,219.828033 
	C245.800461,222.891769 246.333405,225.696915 246.864716,228.909180 
	C247.494446,231.984940 248.243744,234.635422 248.659531,237.337204 
	C248.744614,237.890015 247.579437,238.635239 246.853165,238.913513 
	C244.394501,235.885757 242.073242,233.236252 239.751984,230.586746 
	C239.240280,230.983368 238.728592,231.379974 238.216888,231.776596 
	C240.468887,235.861038 242.720886,239.945480 244.972885,244.029907 
	C244.711227,244.207779 244.449570,244.385635 244.187912,244.563507 
	C239.126556,241.973145 234.065216,239.382797 228.971924,236.615402 
	C228.599991,236.303268 228.260025,236.168152 227.920059,236.033051 
M237.355591,230.796524 
	C238.287155,231.434753 239.218704,232.072983 240.150253,232.711212 
	C239.795975,231.797684 239.441696,230.884140 238.826767,229.307831 
	C237.970703,228.493927 237.114655,227.680008 236.258606,226.866104 
	C236.029434,227.044724 235.800278,227.223343 235.571121,227.401962 
	C236.090775,228.268478 236.610443,229.134995 237.355591,230.796524 
z"/>
<path fill="#EAECEF" opacity="1.000000" stroke="none" 
	d="
M287.037567,278.567627 
	C287.939667,278.978424 288.841797,279.389191 289.939392,280.025757 
	C289.743744,281.236359 289.407684,283.047180 288.952881,283.077454 
	C284.676666,283.362671 284.189087,286.987915 282.357666,289.873230 
	C281.784302,289.931396 281.559937,289.859863 280.996124,289.609467 
	C280.656677,289.430603 280.421997,289.386261 280.421997,289.386261 
	C280.421997,289.386261 280.122070,289.116272 279.965485,288.667786 
	C278.950653,287.144684 278.092438,286.070068 277.140076,284.641174 
	C273.365082,278.169952 269.684235,272.052979 266.099457,266.095673 
	C266.346069,266.095673 267.159454,266.095673 268.117859,266.396332 
	C273.449829,270.045929 278.636780,273.394897 284.129639,276.972717 
	C284.972961,277.134735 285.510284,277.067871 286.047638,277.001038 
	C286.047638,277.001038 286.002869,276.967010 285.746399,277.324127 
	C286.005829,277.976715 286.521698,278.272186 287.037567,278.567627 
z"/>
<path fill="#E7E9ED" opacity="1.000000" stroke="none" 
	d="
M274.959656,217.846222 
	C276.189545,215.135773 277.419434,212.425323 278.800385,209.412262 
	C279.126923,209.147675 279.302338,209.185699 279.743408,209.267776 
	C278.916931,212.056213 277.824768,214.800598 276.162170,217.681137 
	C275.381042,217.826920 275.170349,217.836563 274.959656,217.846222 
z"/>
<path fill="#E4E7EC" opacity="1.000000" stroke="none" 
	d="
M245.255432,306.086212 
	C245.112564,304.655304 245.222717,303.270782 245.332886,301.886261 
	C245.744156,301.924896 246.155426,301.963531 246.566696,302.002167 
	C246.423584,303.108917 246.280472,304.215698 246.069199,305.653229 
	C245.836838,306.033569 245.672653,306.083099 245.255432,306.086212 
z"/>
<path fill="#E8EBEE" opacity="1.000000" stroke="none" 
	d="
M216.542755,243.726105 
	C216.439240,244.658401 216.076752,245.805206 215.386536,246.976746 
	C215.467148,245.981216 215.875473,244.960922 216.542755,243.726105 
z"/>
<path fill="#EBEDEF" opacity="1.000000" stroke="none" 
	d="
M256.274750,304.624817 
	C256.603577,304.200806 257.212585,303.730774 257.910645,303.493713 
	C257.518127,304.010712 257.036530,304.294739 256.274750,304.624817 
z"/>
<path fill="#E5E8EC" opacity="1.000000" stroke="none" 
	d="
M244.934113,217.702026 
	C244.391495,217.580627 243.782974,217.161270 243.085602,216.464951 
	C242.996750,216.187988 243.395721,215.982758 243.618622,215.957489 
	C244.183731,216.422821 244.525970,216.913452 244.934113,217.702026 
z"/>
<path fill="#E4E7EC" opacity="1.000000" stroke="none" 
	d="
M231.927307,304.377563 
	C232.727341,304.232178 233.784943,304.335968 234.921844,304.708160 
	C234.062393,304.859955 233.123642,304.743347 231.927307,304.377563 
z"/>
<path fill="#E7E9ED" opacity="1.000000" stroke="none" 
	d="
M270.417908,298.053833 
	C270.091766,297.612946 269.985260,297.138702 269.878754,296.664429 
	C270.208771,296.883972 270.538788,297.103516 270.935486,297.544861 
	C271.002167,297.766632 270.637512,298.020477 270.417908,298.053833 
z"/>
<path fill="#27438E" opacity="1.000000" stroke="none" 
	d="
M209.893097,269.551880 
	C210.665787,269.394440 211.464630,269.212677 212.671829,268.986511 
	C212.247177,269.195374 211.414139,269.448639 210.223907,269.590637 
	C209.866699,269.479340 209.919235,269.527618 209.893097,269.551880 
z"/>
<path fill="#E5E8EC" opacity="1.000000" stroke="none" 
	d="
M233.778748,222.319275 
	C234.033096,222.548981 234.018372,222.940918 234.001099,223.478683 
	C233.835617,223.243515 233.672653,222.862518 233.778748,222.319275 
z"/>
<path fill="#173586" opacity="1.000000" stroke="none" 
	d="
M267.972809,266.095673 
	C267.159454,266.095673 266.346069,266.095673 266.099457,266.095673 
	C269.684235,272.052979 273.365082,278.169952 277.075623,284.888641 
	C277.069275,285.656982 277.033173,285.823608 276.997040,285.990204 
	C273.530945,282.163544 270.064819,278.336884 266.598724,274.510254 
	C266.165253,274.648285 265.731812,274.786346 265.298340,274.924377 
	C266.313721,280.047028 267.329132,285.169647 268.344513,290.292297 
	C267.759918,290.473846 267.175323,290.655396 266.590729,290.836914 
	C264.425110,284.145721 262.259460,277.454498 259.999512,270.018127 
	C260.247620,267.524261 260.590027,265.775482 261.129639,263.795258 
	C261.057281,262.819061 260.787720,262.074341 260.518158,261.329620 
	C259.676849,262.143829 258.835541,262.958038 257.671631,263.877136 
	C256.849304,264.333313 256.349548,264.684601 255.519669,264.986389 
	C253.618881,263.940002 252.048264,262.943115 250.469971,261.749908 
	C250.462296,261.553589 250.069794,261.535370 250.195190,261.008179 
	C250.223083,260.133179 250.125595,259.785309 250.027267,259.408997 
	C250.026413,259.380524 250.033630,259.324005 250.302582,259.111176 
	C250.677444,257.258453 250.783356,255.618561 250.964355,253.598175 
	C248.696381,252.136475 246.353317,251.055252 244.010239,249.974030 
	C238.716293,245.866562 233.422348,241.759094 228.314896,237.276520 
	C228.668900,236.865082 228.836395,236.828766 229.003876,236.792435 
	C234.065216,239.382797 239.126556,241.973145 244.187912,244.563507 
	C244.449570,244.385635 244.711227,244.207779 244.972885,244.029907 
	C242.720886,239.945480 240.468887,235.861038 238.216888,231.776596 
	C238.728592,231.379974 239.240280,230.983368 239.751984,230.586746 
	C242.073242,233.236252 244.394501,235.885757 246.903290,239.007339 
	C247.203979,239.661301 247.341614,239.822311 247.714447,240.203430 
	C248.289047,240.960968 248.652924,241.477554 249.044220,242.292282 
	C249.374619,242.734940 249.677567,242.879456 249.989166,243.000732 
	C249.997833,242.977463 249.948181,242.978195 249.849640,243.312866 
	C250.569000,244.766556 251.386902,245.885574 252.485138,247.004410 
	C253.139328,247.003326 253.513153,247.002441 253.918182,247.352905 
	C253.699814,248.647125 253.450272,249.589966 252.783417,252.109451 
	C254.989471,250.468430 255.967468,249.740921 257.184814,249.020767 
	C257.424194,249.028107 257.903137,249.024719 258.179810,249.217926 
	C259.574310,250.021362 260.692169,250.631577 261.941132,251.547577 
	C262.513367,253.054825 262.954468,254.256287 263.395569,255.457764 
	C262.366608,251.983688 269.220551,256.737244 267.229584,251.993164 
	C267.451843,251.988510 267.896179,251.970978 267.931549,251.994019 
	C267.966919,252.017044 268.043549,252.052551 268.177368,252.233871 
	C268.726257,252.281403 269.141296,252.147614 269.676575,251.830246 
	C269.796783,251.646667 269.949249,251.235123 270.323181,251.141876 
	C272.015411,250.718872 273.333710,250.389130 274.652008,250.059402 
	C274.274536,249.687210 273.897095,249.315018 273.598022,249.005829 
	C273.676422,249.068848 274.024200,249.168152 274.024200,249.168152 
	C274.024200,249.168152 274.238098,249.156937 274.238098,249.156937 
	C275.244080,249.315170 276.313751,249.777374 277.245728,249.582199 
	C283.203522,248.334564 289.131073,246.942444 295.490021,245.852448 
	C295.933014,246.304977 295.954559,246.502914 295.976074,246.700836 
	C289.251038,248.813629 282.526001,250.926437 275.178650,253.052643 
	C274.556366,253.066040 274.088959,253.036697 273.877808,253.045792 
	C273.457733,253.205307 273.248779,253.355728 273.039825,253.506149 
	C273.389404,253.658401 273.739014,253.810654 274.313202,253.970474 
	C274.537811,253.978058 274.981049,254.052795 274.981049,254.052795 
	C280.602692,254.346481 286.224518,254.636185 291.845795,254.936523 
	C293.383759,255.018692 294.919983,255.132767 296.457031,255.232224 
	C296.468323,255.678192 296.479614,256.124176 296.490936,256.570160 
	C287.249451,257.150146 278.007965,257.730164 269.664124,258.253845 
	C276.017273,260.303772 283.159302,262.608246 290.643677,265.324768 
	C290.988464,266.073120 290.990936,266.409485 290.993408,266.745819 
	C283.192078,264.728912 275.390747,262.712006 266.986450,260.418335 
	C265.956146,260.065704 265.528870,259.989868 264.935791,259.642395 
	C264.035278,259.271790 263.300568,259.172791 262.565857,259.073761 
	C262.691528,259.383026 262.817230,259.692291 263.187622,260.179321 
	C264.320770,260.813141 265.209229,261.269226 266.097687,261.725311 
	C266.097687,261.725311 266.041870,261.908020 266.076782,262.309723 
	C266.732086,263.839508 267.352448,264.967590 267.972809,266.095673 
M246.117828,247.395905 
	C247.358353,248.422256 248.598877,249.448608 249.839386,250.474976 
	C250.162811,250.081421 250.486237,249.687866 250.809647,249.294312 
	C248.918167,247.752930 247.026688,246.211548 244.338196,244.020660 
	C244.939667,245.492126 245.199615,246.128052 246.117828,247.395905 
M264.349792,273.920319 
	C264.992279,273.894775 265.634796,273.869263 266.277283,273.843750 
	C265.306519,272.134186 264.335785,270.424622 263.365021,268.715057 
	C263.012054,268.939545 262.659088,269.164062 262.306122,269.388580 
	C262.877625,270.635742 263.449127,271.882904 264.349792,273.920319 
M270.196686,255.514938 
	C270.196686,255.514938 269.858673,255.409973 269.858673,255.409973 
	C269.858673,255.409973 270.074219,255.652557 270.196686,255.514938 
z"/>
<path fill="#193787" opacity="1.000000" stroke="none" 
	d="
M238.157104,277.964050 
	C236.988678,278.133667 235.580063,277.944336 234.694626,278.536865 
	C231.380020,280.754913 228.236496,283.228699 225.028839,285.606598 
	C224.507721,285.002167 223.986618,284.397705 223.465500,283.793243 
	C227.467438,280.107758 231.469360,276.422272 235.471298,272.736786 
	C235.286011,272.411743 235.100723,272.086731 234.915451,271.761688 
	C230.586838,273.715485 226.258209,275.669312 221.929596,277.623138 
	C221.694000,277.147705 221.458420,276.672272 221.222824,276.196838 
	C228.262177,272.207153 235.301529,268.217468 242.976456,264.016815 
	C244.414688,263.188477 245.217346,262.571136 246.015930,261.985168 
	C246.011856,262.016510 245.950974,261.999451 246.283707,262.105377 
	C247.077896,262.157318 247.539352,262.103333 248.079041,262.280731 
	C248.356018,262.796509 248.627182,262.962799 249.007294,263.099518 
	C249.043808,263.188049 249.148026,263.348724 249.105011,263.684296 
	C249.019699,264.699188 248.977432,265.378510 248.612061,266.045959 
	C247.857590,266.016296 247.426208,265.998535 246.974106,265.809387 
	C246.781006,265.503784 246.608643,265.369598 246.436264,265.235382 
	C246.618698,265.485870 246.801117,265.736359 246.995880,266.325012 
	C247.010376,267.114716 247.012527,267.566223 246.730133,268.183990 
	C244.333267,270.534424 242.220963,272.718567 240.027740,274.970764 
	C239.946854,275.038788 239.812057,275.201630 239.382355,275.280640 
	C238.624298,276.252625 238.295959,277.145599 238.023438,278.041443 
	C238.079254,278.044312 238.157104,277.964050 238.157104,277.964050 
M235.444839,272.147491 
	C235.359512,272.351379 235.274185,272.555237 235.188843,272.759125 
	C235.401382,272.705261 235.613922,272.651428 235.444839,272.147491 
z"/>
<path fill="#133184" opacity="1.000000" stroke="none" 
	d="
M237.949036,260.025970 
	C231.534821,259.584198 225.120575,259.142426 218.706345,258.700653 
	C218.730453,258.096985 218.754562,257.493286 218.778671,256.889587 
	C227.897491,256.889587 237.016312,256.889587 246.623932,256.990295 
	C247.178040,257.244934 247.243347,257.398865 247.125214,257.814178 
	C246.645737,258.375671 246.349701,258.675812 245.882202,259.099365 
	C245.817230,259.581970 245.923691,259.941223 246.009613,260.417542 
	C245.989090,260.534668 245.955185,260.770050 245.664062,261.076416 
	C245.565613,261.588348 245.758301,261.793915 245.950974,261.999451 
	C245.950974,261.999451 246.011856,262.016510 245.780106,261.621918 
	C244.249756,261.749115 242.951157,262.270874 241.652557,262.792664 
	C235.710205,264.304840 229.767868,265.816986 223.413742,267.426575 
	C222.392242,267.438477 221.782532,267.352966 221.172806,267.267456 
	C221.670502,266.614594 222.043610,265.579041 222.685806,265.369934 
	C227.472946,263.811218 232.313400,262.416199 237.872284,260.988342 
	C239.530579,260.347626 240.453720,259.688385 241.376862,259.029144 
	C241.104828,258.714508 240.832794,258.399841 240.560745,258.085175 
	C239.690186,258.732086 238.819611,259.379028 237.949036,260.025970 
z"/>
<path fill="#203D8A" opacity="1.000000" stroke="none" 
	d="
M258.248108,270.166290 
	C258.248108,278.703949 258.248108,287.241638 258.248108,295.779297 
	C257.559082,295.814972 256.870026,295.850677 256.181000,295.886353 
	C255.701019,288.758789 255.221054,281.631226 254.702896,273.936676 
	C253.207687,279.107361 251.830154,283.871094 250.452606,288.634857 
	C249.863037,288.524475 249.273468,288.414093 248.683899,288.303711 
	C248.864334,286.025818 249.044769,283.747894 249.469757,280.723816 
	C250.134735,277.035492 250.555161,274.093353 251.264908,270.637634 
	C251.696243,269.766418 251.838242,269.408813 252.222260,269.030884 
	C252.464264,269.010559 252.947723,268.963745 253.201355,268.965454 
	C253.623932,268.960968 253.792908,268.954742 253.988632,268.957855 
	C254.015396,268.967194 254.059341,269.002991 254.112976,269.253662 
	C254.775253,269.332550 255.383926,269.160767 255.996277,268.993713 
	C255.999969,268.998413 255.987335,268.991089 256.222870,268.880035 
	C256.915070,268.518585 257.371765,268.268158 257.907471,268.281281 
	C258.073730,269.085327 258.160919,269.625793 258.248108,270.166290 
z"/>
<path fill="#203D8A" opacity="1.000000" stroke="none" 
	d="
M241.697281,286.309082 
	C242.485092,284.128082 243.272888,281.947052 244.391907,279.203857 
	C245.476379,276.768066 246.229660,274.894501 246.988586,272.996674 
	C246.994232,272.972412 247.010941,272.925446 247.712830,272.661011 
	C248.996765,271.590637 249.578827,270.784698 250.727524,270.195129 
	C250.271637,273.286621 249.249100,276.161774 248.226578,279.036957 
	C246.675735,281.884827 245.124893,284.732666 243.057541,287.542969 
	C242.259781,287.106659 241.978531,286.707855 241.697281,286.309082 
z"/>
<path fill="#1F3C8A" opacity="1.000000" stroke="none" 
	d="
M242.188141,278.598816 
	C240.466934,280.903015 238.745712,283.207214 237.024506,285.511414 
	C236.363571,284.956879 235.702637,284.402374 235.041702,283.847839 
	C236.014923,282.157196 236.988129,280.466583 238.059235,278.369995 
	C238.157104,277.964050 238.079254,278.044312 238.325027,277.980164 
	C238.984558,277.011200 239.398300,276.106415 239.812042,275.201630 
	C239.812057,275.201630 239.946854,275.038788 240.358276,274.939362 
	C242.850128,274.201782 244.930542,273.563629 247.010941,272.925446 
	C247.010941,272.925446 246.994232,272.972412 246.652008,273.050720 
	C244.935913,274.952271 243.562027,276.775543 242.188141,278.598816 
z"/>
<path fill="#E4E7EC" opacity="1.000000" stroke="none" 
	d="
M248.421600,279.273315 
	C249.249100,276.161774 250.271637,273.286621 250.697281,270.147522 
	C249.827225,269.662598 249.573181,269.676636 249.294312,269.850098 
	C249.250351,269.774414 249.067444,269.812469 249.097397,269.821960 
	C249.127350,269.831421 249.148239,269.890686 249.263199,270.496674 
	C249.787323,271.061737 250.196472,271.020782 250.662659,271.013000 
	C250.719666,271.046173 250.975586,271.151245 250.975586,271.151245 
	C250.555161,274.093353 250.134735,277.035492 249.475311,280.272766 
	C249.029739,280.215149 248.823181,279.862396 248.421600,279.273315 
z"/>
<path fill="#1F3C8A" opacity="1.000000" stroke="none" 
	d="
M241.447815,286.589661 
	C241.978531,286.707855 242.259781,287.106659 242.799057,287.765350 
	C241.797638,290.476898 240.538208,292.928558 238.807297,295.722778 
	C238.113052,296.083679 237.890274,296.101990 237.667511,296.120270 
	C238.844452,293.036926 240.021408,289.953613 241.447815,286.589661 
z"/>
<path fill="#EBEDEF" opacity="1.000000" stroke="none" 
	d="
M258.648560,270.125610 
	C258.160919,269.625793 258.073730,269.085327 257.956238,267.918030 
	C257.233887,266.539459 256.541840,265.787689 255.849823,265.035889 
	C256.349548,264.684601 256.849304,264.333313 258.036194,263.934875 
	C259.459717,263.934021 260.196106,263.980377 260.932434,264.026733 
	C260.590027,265.775482 260.247620,267.524261 259.877533,269.638428 
	C259.582916,270.030884 259.315948,270.057922 258.648560,270.125610 
z"/>
<path fill="#EBEDEF" opacity="1.000000" stroke="none" 
	d="
M242.686768,278.717316 
	C243.562027,276.775543 244.935913,274.952271 246.646362,273.074951 
	C246.229660,274.894501 245.476379,276.768066 244.454422,278.850403 
	C243.852280,278.984711 243.518845,278.910248 242.686768,278.717316 
z"/>
<path fill="#E7E9ED" opacity="1.000000" stroke="none" 
	d="
M277.059875,286.308044 
	C277.033173,285.823608 277.069275,285.656982 277.169800,285.242920 
	C278.092438,286.070068 278.950653,287.144684 279.819519,288.528442 
	C278.927673,288.100372 278.025177,287.363129 277.059875,286.308044 
z"/>
<path fill="#E4E7EC" opacity="1.000000" stroke="none" 
	d="
M237.419250,296.310791 
	C237.890274,296.101990 238.113052,296.083679 238.670044,296.038574 
	C238.223969,297.282043 237.443695,298.552368 236.333252,299.914734 
	C236.003098,300.006805 235.962830,299.976685 235.962830,299.976685 
	C236.365555,298.818237 236.768280,297.659760 237.419250,296.310791 
z"/>
<path fill="#203D8A" opacity="1.000000" stroke="none" 
	d="
M247.274933,293.836884 
	C247.637802,291.726440 248.000671,289.616028 248.363541,287.505585 
	C248.967392,287.605682 249.571243,287.705780 250.175095,287.805878 
	C249.836594,289.588440 249.498108,291.371033 248.608536,293.533813 
	C247.796631,293.888306 247.535797,293.862610 247.274933,293.836884 
z"/>
<path fill="#223F8C" opacity="1.000000" stroke="none" 
	d="
M247.160675,294.140900 
	C247.535797,293.862610 247.796631,293.888306 248.448669,293.953094 
	C248.403717,295.390350 247.967575,296.788483 247.531418,298.186646 
	C247.191284,298.077087 246.851135,297.967529 246.511002,297.857971 
	C246.689468,296.720276 246.867935,295.582611 247.160675,294.140900 
z"/>
<path fill="#27438E" opacity="1.000000" stroke="none" 
	d="
M213.282379,269.128174 
	C214.373688,268.377686 215.839813,267.724487 217.685608,267.392853 
	C218.077789,267.924011 218.090317,268.133606 218.102859,268.343201 
	C216.620972,268.637299 215.139084,268.931366 213.282379,269.128174 
z"/>
<path fill="#E8EBEE" opacity="1.000000" stroke="none" 
	d="
M217.024689,280.364197 
	C216.296570,280.908661 215.563599,281.227020 214.830627,281.545380 
	C214.751465,281.172363 214.672302,280.799347 214.593140,280.426331 
	C215.402054,280.330231 216.210953,280.234161 217.024689,280.364197 
z"/>
<path fill="#26428E" opacity="1.000000" stroke="none" 
	d="
M232.160629,287.369934 
	C233.057602,286.190582 233.954590,285.011230 234.851562,283.831879 
	C235.256805,284.100983 235.662048,284.370087 236.067291,284.639160 
	C235.382996,285.690674 234.698715,286.742188 233.373550,287.812286 
	C232.541992,287.677216 232.351318,287.523590 232.160629,287.369934 
z"/>
<path fill="#CDD3E1" opacity="1.000000" stroke="none" 
	d="
M241.885757,262.951965 
	C242.951157,262.270874 244.249756,261.749115 245.784180,261.590576 
	C245.217346,262.571136 244.414688,263.188477 243.283508,263.833252 
	C242.676300,263.610901 242.397629,263.361084 241.885757,262.951965 
z"/>
<path fill="#EBEDEF" opacity="1.000000" stroke="none" 
	d="
M228.039185,293.624878 
	C228.200790,293.859985 228.208923,294.090759 228.217072,294.321594 
	C228.086914,294.317719 227.956772,294.313843 227.826630,294.309998 
	C227.846329,294.080170 227.866028,293.850403 228.039185,293.624878 
z"/>
<path fill="#E7E9ED" opacity="1.000000" stroke="none" 
	d="
M269.188568,292.438019 
	C269.056244,292.739410 268.788818,292.922455 268.521362,293.105530 
	C268.418762,292.872650 268.316132,292.639771 268.213470,292.406891 
	C268.493469,292.377838 268.773468,292.348785 269.188568,292.438019 
z"/>
<path fill="#E8EBEE" opacity="1.000000" stroke="none" 
	d="
M216.862213,292.136139 
	C217.029785,291.739899 217.326675,291.215637 217.623550,290.691376 
	C218.067719,291.087799 218.511887,291.484222 218.956055,291.880646 
	C218.379486,291.947632 217.802917,292.014618 216.981506,292.174805 
	C216.736664,292.268036 216.991516,292.008118 216.862213,292.136139 
z"/>
<path fill="#EBEDEF" opacity="1.000000" stroke="none" 
	d="
M229.625610,290.605530 
	C229.829590,290.688904 229.937103,290.864990 230.044617,291.041077 
	C229.872787,290.926788 229.700958,290.812531 229.625610,290.605530 
z"/>
<path fill="#E8EBEE" opacity="1.000000" stroke="none" 
	d="
M219.760651,278.367188 
	C219.608490,278.543823 219.421951,278.586884 219.235382,278.629974 
	C219.399002,278.497833 219.562622,278.365723 219.760651,278.367188 
z"/>
<path fill="#133184" opacity="1.000000" stroke="none" 
	d="
M218.532532,268.317017 
	C218.090317,268.133606 218.077789,267.924011 218.038757,267.400574 
	C219.417480,267.060577 220.822723,267.034393 221.876251,267.525574 
	C220.670441,268.125580 219.816330,268.208221 218.532532,268.317017 
z"/>
<path fill="#E4E7EC" opacity="1.000000" stroke="none" 
	d="
M236.021667,300.023743 
	C235.864120,300.336273 235.688004,300.631836 235.511887,300.927399 
	C235.565826,300.691833 235.619781,300.456299 235.818283,300.098694 
	C235.962830,299.976685 236.003098,300.006805 236.021667,300.023743 
z"/>
<path fill="#26428E" opacity="1.000000" stroke="none" 
	d="
M233.014496,288.066498 
	C232.661728,288.471954 232.027176,288.641785 231.392609,288.811646 
	C231.498764,288.458344 231.604935,288.105011 231.935867,287.560822 
	C232.351318,287.523590 232.541992,287.677216 233.014496,288.066498 
z"/>
<path fill="#EBEDEF" opacity="1.000000" stroke="none" 
	d="
M223.536865,287.106903 
	C223.472092,287.136810 223.455688,286.866180 223.455688,286.866180 
	C223.455688,286.866180 223.601654,287.076996 223.536865,287.106903 
z"/>
<path fill="#E7E9ED" opacity="1.000000" stroke="none" 
	d="
M280.414673,289.461517 
	C280.421997,289.386261 280.656677,289.430603 280.661926,289.494995 
	C280.667206,289.559387 280.407379,289.536774 280.414673,289.461517 
z"/>
<path fill="#1B3988" opacity="1.000000" stroke="none" 
	d="
M273.043335,234.219177 
	C275.806519,231.154373 278.569702,228.089569 281.669800,225.013275 
	C282.006744,225.001785 282.058960,224.972977 282.058960,224.972977 
	C280.078583,228.530533 278.098175,232.088074 276.117798,235.645630 
	C276.300262,236.034393 276.482727,236.423157 276.665192,236.811920 
	C279.220154,235.203583 281.775116,233.595245 284.330078,231.986908 
	C284.716461,232.346771 285.102814,232.706635 285.489166,233.066483 
	C283.262207,235.336594 281.035248,237.606689 278.438293,240.097504 
	C278.068329,240.318237 277.992340,240.435364 277.799652,240.719986 
	C277.044983,241.682892 276.483032,242.361176 275.965393,243.028900 
	C276.009705,243.018341 276.038422,242.931839 275.716125,242.893326 
	C274.934937,243.222626 274.475983,243.590439 273.784393,244.098846 
	C271.604858,243.388580 269.658020,242.537720 267.817078,241.362427 
	C269.131073,239.362350 270.339172,237.686722 271.718842,235.851196 
	C272.274719,235.200592 272.659027,234.709885 273.043335,234.219177 
M276.385193,237.073853 
	C275.892700,236.960388 275.403320,236.810791 274.904724,236.767380 
	C274.817078,236.759735 274.690704,237.196808 274.582245,237.428497 
	C275.003510,237.545334 275.424805,237.662170 276.385193,237.073853 
z"/>
<path fill="#203D8A" opacity="1.000000" stroke="none" 
	d="
M277.992340,240.435364 
	C277.992340,240.435364 278.068329,240.318237 278.091003,240.292694 
	C278.989441,240.643234 280.055695,241.541733 280.707520,241.303970 
	C283.370941,240.332489 285.907776,239.013840 288.491211,237.823059 
	C288.816620,238.394547 289.142029,238.966049 289.467438,239.537537 
	C284.636383,242.438904 279.805328,245.340271 274.606201,248.699280 
	C274.238098,249.156937 274.024200,249.168152 274.024200,249.168152 
	C274.024200,249.168152 273.676422,249.068848 273.126312,249.144440 
	C271.960083,249.422394 271.343994,249.624771 270.785095,249.396744 
	C269.937836,247.558990 269.033356,246.151642 268.064026,244.366409 
	C267.900848,243.225433 267.802490,242.462326 267.724091,241.703979 
	C267.744049,241.708725 267.711151,241.686874 267.711151,241.686874 
	C269.658020,242.537720 271.604858,243.388580 274.168427,244.139908 
	C275.202911,243.670883 275.620667,243.301361 276.038422,242.931839 
	C276.038422,242.931839 276.009705,243.018341 276.523346,243.145660 
	C277.355438,242.327118 277.673889,241.381241 277.992340,240.435364 
z"/>
<path fill="#213D8B" opacity="1.000000" stroke="none" 
	d="
M272.544952,234.558441 
	C272.659027,234.709885 272.274719,235.200592 271.767456,235.209518 
	C270.601532,235.274033 269.244720,235.572021 268.577301,236.415527 
	C266.907532,238.525787 265.550385,240.883392 263.874146,242.933914 
	C263.147095,241.758606 262.613678,240.791153 262.437317,239.894623 
	C263.211731,239.296448 263.629150,238.627365 264.039001,237.991730 
	C264.031464,238.025192 263.974274,238.063065 264.283203,237.994431 
	C264.961212,236.947128 265.330322,235.968460 265.699463,234.989792 
	C268.573425,229.680237 271.447388,224.370667 274.669006,219.000107 
	C273.563721,223.320816 272.101501,227.699478 270.663544,232.086105 
	C270.218994,233.442307 268.840546,235.313828 272.544952,234.558441 
z"/>
<path fill="#163486" opacity="1.000000" stroke="none" 
	d="
M268.117859,266.396332 
	C267.352448,264.967590 266.732086,263.839508 266.038361,262.397156 
	C271.877563,266.173523 277.790100,270.264191 283.812988,275.098022 
	C283.890076,276.142059 283.856873,276.442963 283.823700,276.743835 
	C278.636780,273.394897 273.449829,270.045929 268.117859,266.396332 
z"/>
<path fill="#203D8A" opacity="1.000000" stroke="none" 
	d="
M295.500000,235.636734 
	C293.018890,237.192413 290.832977,238.522491 288.647095,239.852554 
	C288.351196,239.362732 288.055267,238.872910 287.759369,238.383087 
	C290.595428,236.770477 293.431488,235.157867 296.267548,233.545273 
	C296.436737,233.817963 296.605927,234.090652 296.775116,234.363342 
	C296.448486,234.712601 296.121826,235.061859 295.500000,235.636734 
z"/>
<path fill="#E8EBEE" opacity="1.000000" stroke="none" 
	d="
M282.015717,224.973358 
	C282.833954,223.241928 283.643188,221.538925 284.452454,219.835922 
	C285.011139,220.160950 285.569824,220.485977 286.128510,220.811020 
	C284.987427,222.156036 283.846313,223.501068 282.382080,224.909546 
	C282.058960,224.972977 282.006744,225.001785 282.015717,224.973358 
z"/>
<path fill="#203D8A" opacity="1.000000" stroke="none" 
	d="
M290.881622,227.059464 
	C290.274689,228.008865 289.667755,228.958252 288.306519,229.987122 
	C287.223328,230.039993 286.894409,230.013412 286.565491,229.986816 
	C287.543976,229.103821 288.522461,228.220840 289.965881,227.220078 
	C290.430847,227.102310 290.881622,227.059464 290.881622,227.059464 
z"/>
<path fill="#E8EBEE" opacity="1.000000" stroke="none" 
	d="
M290.322449,214.669739 
	C289.960632,215.448563 289.555481,216.252701 289.150330,217.056839 
	C288.906677,216.907806 288.662994,216.758774 288.419342,216.609741 
	C288.865356,216.029816 289.311371,215.449905 290.046173,214.739410 
	C290.334961,214.608826 290.279144,214.695053 290.322449,214.669739 
z"/>
<path fill="#EAECEF" opacity="1.000000" stroke="none" 
	d="
M266.182251,261.558838 
	C265.209229,261.269226 264.320770,260.813141 263.546875,260.235229 
	C264.141479,260.046936 264.621521,259.980469 265.101562,259.914001 
	C265.528870,259.989868 265.956146,260.065704 266.658081,260.316223 
	C266.710785,260.791351 266.488831,261.091827 266.182251,261.558838 
z"/>
<path fill="#1B3888" opacity="1.000000" stroke="none" 
	d="
M291.312988,266.858765 
	C290.990936,266.409485 290.988464,266.073120 290.989319,265.484528 
	C291.866638,265.531097 292.740723,265.829926 293.614777,266.128754 
	C293.609161,266.348114 293.603516,266.567474 293.597900,266.786835 
	C292.942810,266.848450 292.287689,266.910065 291.312988,266.858765 
z"/>
<path fill="#E9ECEF" opacity="1.000000" stroke="none" 
	d="
M299.245544,232.629547 
	C299.393585,232.457687 299.575043,232.415802 299.756500,232.373932 
	C299.597321,232.502441 299.438141,232.630981 299.245544,232.629547 
z"/>
<path fill="#1A3888" opacity="1.000000" stroke="none" 
	d="
M284.129639,276.972717 
	C283.856873,276.442963 283.890076,276.142059 283.973755,275.389954 
	C284.680206,275.420624 285.336212,275.902527 286.019928,276.692749 
	C285.510284,277.067871 284.972961,277.134735 284.129639,276.972717 
z"/>
<path fill="#23408C" opacity="1.000000" stroke="none" 
	d="
M296.209259,246.685242 
	C295.954559,246.502914 295.933014,246.304977 295.911133,245.807648 
	C296.183136,245.484940 296.455414,245.461639 296.727722,245.438339 
	C296.632629,245.848770 296.537537,246.259201 296.209259,246.685242 
z"/>
<path fill="#E6E9ED" opacity="1.000000" stroke="none" 
	d="
M290.980865,226.937317 
	C290.881622,227.059464 290.430847,227.102310 290.223206,227.012085 
	C290.370422,226.886307 290.725250,226.850739 290.980865,226.937317 
z"/>
<path fill="#EAECEF" opacity="1.000000" stroke="none" 
	d="
M274.088959,253.036697 
	C274.088959,253.036697 274.556366,253.066040 274.778778,253.139359 
	C275.001190,253.212677 274.996307,253.632736 274.988678,253.842773 
	C274.981049,254.052795 274.537811,253.978058 274.215820,253.738892 
	C273.958832,253.345367 274.023895,253.191040 274.088959,253.036697 
z"/>
<path fill="#1B3988" opacity="1.000000" stroke="none" 
	d="
M286.408325,230.455780 
	C286.894409,230.013412 287.223328,230.039993 288.045227,230.111328 
	C287.775879,230.412277 287.013550,230.668518 286.408325,230.455780 
z"/>
<path fill="#213D8B" opacity="1.000000" stroke="none" 
	d="
M274.862610,218.143860 
	C275.170349,217.836563 275.381042,217.826920 275.900208,217.887589 
	C276.023315,218.441803 275.837891,218.925705 275.303223,219.224106 
	C274.891174,218.839584 274.828369,218.640549 274.862610,218.143860 
z"/>
<path fill="#1A3888" opacity="1.000000" stroke="none" 
	d="
M287.094055,278.173706 
	C286.521698,278.272186 286.005829,277.976715 285.729675,277.301514 
	C286.363098,277.207794 286.756836,277.493774 287.094055,278.173706 
z"/>
<path fill="#1E3B8A" opacity="1.000000" stroke="none" 
	d="
M262.080292,239.823700 
	C262.613678,240.791153 263.147095,241.758606 263.968567,243.289871 
	C264.310333,245.244125 264.364075,246.634583 264.220734,248.104004 
	C263.699280,248.442581 263.374939,248.702209 263.003693,248.663849 
	C262.668488,247.944031 262.380188,247.522171 261.713257,247.085205 
	C260.497559,246.070145 259.660431,245.070190 259.117371,244.050354 
	C259.607574,244.020325 259.803772,244.010162 260.036438,244.202423 
	C260.236603,244.628525 260.400330,244.852219 260.564026,245.075928 
	C260.735504,244.915695 260.906982,244.755432 261.078430,244.595184 
	C260.718964,244.396774 260.359467,244.198380 259.998657,243.697556 
	C259.894684,242.677170 259.792023,241.959244 259.482483,239.795013 
	C258.283386,242.121353 257.702179,243.248947 257.123474,244.723053 
	C257.385010,246.387970 257.644073,247.706345 257.903137,249.024719 
	C257.903137,249.024719 257.424194,249.028107 256.846588,248.829224 
	C256.082489,247.085815 255.895966,245.541260 255.709457,243.996719 
	C255.709457,235.575439 255.709457,227.154160 255.709457,218.732895 
	C256.261749,218.704071 256.814056,218.675262 257.366333,218.646439 
	C257.882843,225.378922 258.399353,232.111404 259.002838,239.977493 
	C261.522003,231.370255 263.741730,223.786057 265.961456,216.201843 
	C266.455536,216.312180 266.949615,216.422501 267.443695,216.532822 
	C266.371979,222.418732 265.300232,228.304626 264.014771,234.997986 
	C263.858795,236.557999 263.916534,237.310532 263.974274,238.063065 
	C263.974274,238.063065 264.031464,238.025192 263.766296,237.773361 
	C263.027527,238.288925 262.553894,239.056305 262.080292,239.823700 
z"/>
<path fill="#193787" opacity="1.000000" stroke="none" 
	d="
M247.503708,239.962463 
	C247.341614,239.822311 247.203979,239.661301 247.040680,239.385590 
	C247.579437,238.635239 248.744614,237.890015 248.659531,237.337204 
	C248.243744,234.635422 247.494446,231.984940 246.932404,228.569870 
	C247.311752,227.218567 247.621780,226.613693 247.931793,226.008820 
	C249.924332,231.757767 251.916901,237.506699 253.986511,243.891052 
	C254.004684,245.351501 253.945831,246.176514 253.886963,247.001556 
	C253.513153,247.002441 253.139328,247.003326 252.426102,246.607910 
	C251.373856,245.133789 250.661026,244.055984 249.948181,242.978195 
	C249.948181,242.978195 249.997833,242.977463 250.350281,242.914963 
	C250.661621,242.608582 250.620514,242.364716 250.374817,241.597046 
	C249.281372,240.702988 248.392548,240.332733 247.503708,239.962463 
z"/>
<path fill="#EAECEF" opacity="1.000000" stroke="none" 
	d="
M253.918167,247.352905 
	C253.945831,246.176514 254.004684,245.351501 254.108521,244.278534 
	C254.499252,244.021896 254.845001,244.013199 255.450104,244.000610 
	C255.895966,245.541260 256.082489,247.085815 256.607208,248.821899 
	C255.967468,249.740921 254.989471,250.468430 252.783417,252.109451 
	C253.450272,249.589966 253.699814,248.647125 253.918167,247.352905 
z"/>
<path fill="#1B3988" opacity="1.000000" stroke="none" 
	d="
M247.914444,225.662079 
	C247.621780,226.613693 247.311752,227.218567 246.934036,228.162750 
	C246.333405,225.696915 245.800461,222.891769 245.599762,220.128815 
	C246.587051,221.885788 247.242081,223.600555 247.914444,225.662079 
z"/>
<path fill="#E7E9ED" opacity="1.000000" stroke="none" 
	d="
M264.283203,237.994431 
	C263.916534,237.310532 263.858795,236.557999 263.988892,235.400818 
	C264.515106,234.993332 264.853516,234.990494 265.445679,234.988724 
	C265.330322,235.968460 264.961212,236.947128 264.283203,237.994431 
z"/>
<path fill="#E7E9ED" opacity="1.000000" stroke="none" 
	d="
M267.148895,213.832581 
	C266.922211,213.925201 266.714081,213.884109 266.505951,213.843018 
	C266.726440,213.794952 266.946960,213.746902 267.148895,213.832581 
z"/>
<path fill="#133184" opacity="1.000000" stroke="none" 
	d="
M247.321472,253.766708 
	C243.635529,253.646133 239.847427,254.015778 236.290863,253.274475 
	C232.308487,252.444412 228.535812,250.608246 224.344116,248.771011 
	C224.016342,247.973022 224.016342,247.613892 224.016327,247.254776 
	C230.304382,248.755249 236.592453,250.255707 243.869797,252.148865 
	C245.679886,252.949936 246.500671,253.358322 247.321472,253.766708 
z"/>
<path fill="#E8EBEE" opacity="1.000000" stroke="none" 
	d="
M247.268372,253.756653 
	C246.500671,253.358322 245.679886,252.949936 244.272095,252.203094 
	C243.740387,251.549713 243.795654,251.234802 243.930573,250.446960 
	C246.353317,251.055252 248.696381,252.136475 250.695374,253.669708 
	C249.895584,254.242386 249.439880,254.363052 248.984177,254.483704 
	C248.394547,254.238007 247.804901,253.992310 247.268372,253.756653 
z"/>
<path fill="#49609F" opacity="1.000000" stroke="none" 
	d="
M248.547073,254.202209 
	C249.439880,254.363052 249.895584,254.242386 250.620270,254.050201 
	C250.783356,255.618561 250.677444,257.258453 250.098236,258.845276 
	C248.852844,258.379089 248.080734,257.965942 247.308640,257.552826 
	C247.243347,257.398865 247.178040,257.244934 247.027817,256.854980 
	C247.331924,255.719543 247.720947,254.820129 248.547073,254.202209 
z"/>
<path fill="#27438E" opacity="1.000000" stroke="none" 
	d="
M238.040970,260.263702 
	C238.819611,259.379028 239.690186,258.732086 240.560745,258.085175 
	C240.832794,258.399841 241.104828,258.714508 241.376862,259.029144 
	C240.453720,259.688385 239.530579,260.347626 238.270203,260.988647 
	C237.999619,260.814087 238.066269,260.657776 238.040970,260.263702 
z"/>
<path fill="#1E3B8A" opacity="1.000000" stroke="none" 
	d="
M223.651428,247.131470 
	C224.016342,247.613892 224.016342,247.973022 224.012833,248.601501 
	C222.747360,248.515091 221.485413,248.159332 220.223450,247.803589 
	C220.269821,247.538437 220.316193,247.273300 220.362564,247.008163 
	C221.337219,247.008163 222.311874,247.008163 223.651428,247.131470 
z"/>
<path fill="#E7E9ED" opacity="1.000000" stroke="none" 
	d="
M225.302628,235.244141 
	C225.720963,235.177979 226.320755,235.315536 226.974625,235.665070 
	C226.513824,235.733994 225.998962,235.590912 225.302628,235.244141 
z"/>
<path fill="#E7E9ED" opacity="1.000000" stroke="none" 
	d="
M228.971924,236.615402 
	C228.836395,236.828766 228.668900,236.865082 228.247467,236.941589 
	C227.993530,236.981766 227.958176,236.506790 227.939117,236.269928 
	C228.260025,236.168152 228.599991,236.303268 228.971924,236.615402 
z"/>
<path fill="#163486" opacity="1.000000" stroke="none" 
	d="
M224.173340,233.945496 
	C224.014191,234.244293 224.065018,234.534683 224.365295,234.734924 
	C224.614746,234.644791 224.703766,234.223404 224.703766,234.223404 
	C224.703766,234.223404 224.383331,233.937073 224.173340,233.945496 
z"/>
<path fill="#193787" opacity="1.000000" stroke="none" 
	d="
M237.130096,230.001511 
	C236.610443,229.134995 236.090775,228.268478 235.571121,227.401962 
	C235.800278,227.223343 236.029434,227.044724 236.258606,226.866104 
	C237.114655,227.680008 237.970703,228.493927 238.630890,229.645691 
	C238.000046,229.989532 237.565063,229.995514 237.130096,230.001511 
z"/>
<path fill="#173586" opacity="1.000000" stroke="none" 
	d="
M237.242844,230.399017 
	C237.565063,229.995514 238.000046,229.989532 238.761215,229.977081 
	C239.441696,230.884140 239.795975,231.797684 240.150253,232.711212 
	C239.218704,232.072983 238.287155,231.434753 237.242844,230.399017 
z"/>
<path fill="#223F8C" opacity="1.000000" stroke="none" 
	d="
M255.519669,264.986389 
	C256.541840,265.787689 257.233887,266.539459 257.877167,267.654480 
	C257.371765,268.268158 256.915070,268.518585 256.112488,268.567413 
	C253.560394,266.693481 251.354202,265.021088 249.148026,263.348724 
	C249.148026,263.348724 249.043808,263.188049 249.341858,263.070435 
	C249.919144,262.617279 250.198395,262.281769 250.477631,261.946228 
	C252.048264,262.943115 253.618881,263.940002 255.519669,264.986389 
z"/>
<path fill="#6C7FB0" opacity="1.000000" stroke="none" 
	d="
M263.050629,248.961823 
	C263.374939,248.702209 263.699280,248.442581 264.598328,248.025421 
	C265.429260,247.887268 265.685547,247.906677 265.934174,248.263077 
	C265.912994,249.049301 265.899445,249.498505 265.664490,250.043121 
	C265.964478,250.758270 266.485901,251.378036 267.007324,251.997818 
	C269.220551,256.737244 262.366608,251.983688 263.395569,255.457764 
	C262.954468,254.256287 262.513367,253.054825 262.046448,251.399139 
	C262.020630,250.944916 262.230377,250.647995 262.394409,250.476379 
	C262.722534,249.857132 262.886566,249.409485 263.050629,248.961823 
z"/>
<path fill="#6C7FB0" opacity="1.000000" stroke="none" 
	d="
M258.823334,244.070221 
	C259.660431,245.070190 260.497559,246.070145 261.617676,247.358047 
	C262.010559,248.646652 262.120453,249.647324 262.230377,250.647995 
	C262.230377,250.647995 262.020630,250.944916 261.915314,251.093353 
	C260.692169,250.631577 259.574310,250.021362 258.179810,249.217926 
	C257.644073,247.706345 257.385010,246.387970 257.396423,244.618805 
	C258.052368,244.135422 258.437866,244.102829 258.823334,244.070221 
z"/>
<path fill="#203D8A" opacity="1.000000" stroke="none" 
	d="
M265.885925,249.947723 
	C265.899445,249.498505 265.912994,249.049301 266.101868,248.075684 
	C266.560181,247.379593 266.843140,247.207916 267.497986,247.132629 
	C268.808197,248.097397 269.746552,248.965790 270.463104,250.008728 
	C270.143951,250.533890 270.046600,250.884506 269.949249,251.235123 
	C269.949249,251.235123 269.796783,251.646667 269.430206,251.814011 
	C268.723602,252.005081 268.383575,252.028824 268.043549,252.052551 
	C268.043549,252.052551 267.966919,252.017044 267.868103,251.692139 
	C267.141479,250.894058 266.513702,250.420898 265.885925,249.947723 
z"/>
<path fill="#E7E9ED" opacity="1.000000" stroke="none" 
	d="
M245.788696,247.079956 
	C245.199615,246.128052 244.939667,245.492126 244.338196,244.020660 
	C247.026688,246.211548 248.918167,247.752930 250.809647,249.294312 
	C250.486237,249.687866 250.162811,250.081421 249.839386,250.474976 
	C248.598877,249.448608 247.358353,248.422256 245.788696,247.079956 
z"/>
<path fill="#1A3888" opacity="1.000000" stroke="none" 
	d="
M261.129639,263.795258 
	C260.196106,263.980377 259.459717,263.934021 258.358795,263.829956 
	C258.835541,262.958038 259.676849,262.143829 260.518158,261.329620 
	C260.787720,262.074341 261.057281,262.819061 261.129639,263.795258 
z"/>
<path fill="#E7E9ED" opacity="1.000000" stroke="none" 
	d="
M264.185211,273.525208 
	C263.449127,271.882904 262.877625,270.635742 262.306122,269.388580 
	C262.659088,269.164062 263.012054,268.939545 263.365021,268.715057 
	C264.335785,270.424622 265.306519,272.134186 266.277283,273.843750 
	C265.634796,273.869263 264.992279,273.894775 264.185211,273.525208 
z"/>
<path fill="#163486" opacity="1.000000" stroke="none" 
	d="
M247.125214,257.814178 
	C248.080734,257.965942 248.852844,258.379089 249.829285,259.058105 
	C250.033630,259.324005 250.026413,259.380524 249.706512,259.563995 
	C248.891098,260.143250 248.395584,260.539032 247.935028,260.931152 
	C247.969986,260.927490 247.937958,260.864868 247.625824,260.718506 
	C246.860870,260.638092 246.408020,260.704071 245.955185,260.770050 
	C245.955185,260.770050 245.989090,260.534668 246.042801,260.086029 
	C246.082230,259.416901 246.067947,259.196442 246.053650,258.975952 
	C246.349701,258.675812 246.645737,258.375671 247.125214,257.814178 
z"/>
<path fill="#193787" opacity="1.000000" stroke="none" 
	d="
M265.664490,250.043121 
	C266.513702,250.420898 267.141479,250.894058 267.832703,251.669098 
	C267.896179,251.970978 267.451843,251.988510 267.229584,251.993164 
	C266.485901,251.378036 265.964478,250.758270 265.664490,250.043121 
z"/>
<path fill="#EAECEF" opacity="1.000000" stroke="none" 
	d="
M270.323181,251.141876 
	C270.046600,250.884506 270.143951,250.533890 270.468109,249.973083 
	C270.694916,249.762863 270.727875,249.827148 270.727875,249.827148 
	C271.343994,249.624771 271.960083,249.422394 273.047913,249.081421 
	C273.897095,249.315018 274.274536,249.687210 274.652008,250.059402 
	C273.333710,250.389130 272.015411,250.718872 270.323181,251.141876 
z"/>
<path fill="#E5E8EC" opacity="1.000000" stroke="none" 
	d="
M249.849640,243.312866 
	C250.661026,244.055984 251.373856,245.133789 252.145752,246.608093 
	C251.386902,245.885574 250.569000,244.766556 249.849640,243.312866 
z"/>
<path fill="#EAECEF" opacity="1.000000" stroke="none" 
	d="
M247.714447,240.203430 
	C248.392548,240.332733 249.281372,240.702988 249.984528,241.560364 
	C249.538162,242.029724 249.277481,242.011948 249.016785,241.994156 
	C248.652924,241.477554 248.289047,240.960968 247.714447,240.203430 
z"/>
<path fill="#A2ADCB" opacity="1.000000" stroke="none" 
	d="
M264.935791,259.642395 
	C264.621521,259.980469 264.141479,260.046936 263.302185,260.057495 
	C262.817230,259.692291 262.691528,259.383026 262.565857,259.073761 
	C263.300568,259.172791 264.035278,259.271790 264.935791,259.642395 
z"/>
<path fill="#6C7FB0" opacity="1.000000" stroke="none" 
	d="
M250.469971,261.749908 
	C250.198395,262.281769 249.919144,262.617279 249.305328,262.981873 
	C248.627182,262.962799 248.356018,262.796509 248.080139,261.983704 
	C247.981308,261.258514 247.959641,261.061676 247.937958,260.864868 
	C247.937958,260.864868 247.969986,260.927490 248.317780,260.976410 
	C249.133667,261.195343 249.601730,261.365356 250.069794,261.535370 
	C250.069794,261.535370 250.462296,261.553589 250.469971,261.749908 
z"/>
<path fill="#CDD3E1" opacity="1.000000" stroke="none" 
	d="
M250.195190,261.008179 
	C249.601730,261.365356 249.133667,261.195343 248.282822,260.980072 
	C248.395584,260.539032 248.891098,260.143250 249.707367,259.592468 
	C250.125595,259.785309 250.223083,260.133179 250.195190,261.008179 
z"/>
<path fill="#23408C" opacity="1.000000" stroke="none" 
	d="
M270.135437,255.583740 
	C270.074219,255.652557 269.858673,255.409973 269.858673,255.409973 
	C269.858673,255.409973 270.196686,255.514938 270.135437,255.583740 
z"/>
<path fill="#23408C" opacity="1.000000" stroke="none" 
	d="
M273.877808,253.045792 
	C274.023895,253.191040 273.958832,253.345367 273.991211,253.731293 
	C273.739014,253.810654 273.389404,253.658401 273.039825,253.506149 
	C273.248779,253.355728 273.457733,253.205307 273.877808,253.045792 
z"/>
<path fill="#23408C" opacity="1.000000" stroke="none" 
	d="
M268.177368,252.233887 
	C268.383575,252.028824 268.723602,252.005081 269.309998,251.997589 
	C269.141296,252.147614 268.726257,252.281403 268.177368,252.233887 
z"/>
<path fill="#E5E8EC" opacity="1.000000" stroke="none" 
	d="
M249.044220,242.292282 
	C249.277481,242.011948 249.538162,242.029724 250.189133,242.084167 
	C250.620514,242.364716 250.661621,242.608582 250.341614,242.938232 
	C249.677567,242.879456 249.374619,242.734940 249.044220,242.292282 
z"/>
<path fill="#26428E" opacity="1.000000" stroke="none" 
	d="
M249.338257,269.925812 
	C249.573181,269.676636 249.827225,269.662598 250.130630,269.931213 
	C249.578827,270.784698 248.996765,271.590637 247.712830,272.661011 
	C244.930542,273.563629 242.850128,274.201782 240.439178,274.871338 
	C242.220963,272.718567 244.333267,270.534424 246.871185,268.376587 
	C247.977264,268.910553 248.657761,269.418182 249.338257,269.925812 
z"/>
<path fill="#163486" opacity="1.000000" stroke="none" 
	d="
M249.105011,263.684296 
	C251.354202,265.021088 253.560394,266.693481 255.876953,268.678467 
	C255.987335,268.991089 255.999969,268.998413 255.673950,268.994843 
	C254.918396,268.995178 254.488861,268.999084 254.059341,269.002991 
	C254.059341,269.002991 254.015396,268.967194 253.881683,268.850952 
	C253.437943,268.614990 253.171188,268.691345 252.947723,268.963745 
	C252.947723,268.963745 252.464264,269.010559 251.766571,269.432800 
	C250.914459,270.230011 250.760040,270.604919 250.605621,270.979858 
	C250.196472,271.020782 249.787323,271.061737 249.460007,270.210693 
	C249.368912,268.524994 249.195984,267.731232 249.002380,266.717468 
	C248.981705,266.497406 248.935150,266.057831 248.935150,266.057831 
	C248.977432,265.378510 249.019699,264.699188 249.105011,263.684296 
z"/>
<path fill="#223F8C" opacity="1.000000" stroke="none" 
	d="
M248.612061,266.045959 
	C248.935150,266.057831 248.981705,266.497406 249.004074,267.193726 
	C249.040100,268.530823 249.053772,269.171661 249.067444,269.812469 
	C249.067444,269.812469 249.250351,269.774414 249.294312,269.850098 
	C248.657761,269.418182 247.977264,268.910553 247.155731,268.210327 
	C247.012527,267.566223 247.010376,267.114716 247.003494,266.330902 
	C246.998764,265.998596 246.994843,265.980774 246.994843,265.980774 
	C247.426208,265.998535 247.857590,266.016296 248.612061,266.045959 
z"/>
<path fill="#EBEDEF" opacity="1.000000" stroke="none" 
	d="
M239.382339,275.280640 
	C239.398300,276.106415 238.984558,277.011200 238.269196,277.977295 
	C238.295959,277.145599 238.624298,276.252625 239.382339,275.280640 
z"/>
<path fill="#CDD3E1" opacity="1.000000" stroke="none" 
	d="
M247.625824,260.718506 
	C247.959641,261.061676 247.981308,261.258514 248.001892,261.752319 
	C247.539352,262.103333 247.077896,262.157318 246.283707,262.105377 
	C245.758301,261.793915 245.565613,261.588348 245.664062,261.076416 
	C246.408020,260.704071 246.860870,260.638092 247.625824,260.718506 
z"/>
<path fill="#27438E" opacity="1.000000" stroke="none" 
	d="
M246.991150,265.992737 
	C246.801117,265.736359 246.618698,265.485870 246.436264,265.235382 
	C246.608643,265.369598 246.781006,265.503784 246.974106,265.809387 
	C246.994843,265.980774 246.998764,265.998596 246.991150,265.992737 
z"/>
<path fill="#EBEEF0" opacity="1.000000" stroke="none" 
	d="
M235.635651,272.372528 
	C235.613922,272.651428 235.401382,272.705261 235.188843,272.759125 
	C235.274185,272.555237 235.359512,272.351379 235.635651,272.372528 
z"/>
<path fill="#49609F" opacity="1.000000" stroke="none" 
	d="
M245.882217,259.099365 
	C246.067947,259.196442 246.082230,259.416901 246.063324,259.968933 
	C245.923691,259.941223 245.817230,259.581970 245.882217,259.099365 
z"/>
<path fill="#223F8C" opacity="1.000000" stroke="none" 
	d="
M254.112976,269.253662 
	C254.488861,268.999084 254.918396,268.995178 255.670258,268.990112 
	C255.383926,269.160767 254.775253,269.332550 254.112976,269.253662 
z"/>
<path fill="#223F8C" opacity="1.000000" stroke="none" 
	d="
M250.662643,271.013000 
	C250.760040,270.604919 250.914459,270.230011 251.524567,269.453125 
	C251.838242,269.408813 251.696243,269.766418 251.264908,270.637634 
	C250.975586,271.151245 250.719666,271.046173 250.662643,271.013000 
z"/>
<path fill="#223F8C" opacity="1.000000" stroke="none" 
	d="
M253.201355,268.965454 
	C253.171188,268.691345 253.437943,268.614990 253.854919,268.841614 
	C253.792908,268.954742 253.623932,268.960968 253.201355,268.965454 
z"/>
<path fill="#26428E" opacity="1.000000" stroke="none" 
	d="
M249.097397,269.821960 
	C249.053772,269.171661 249.040100,268.530823 249.024750,267.413757 
	C249.195984,267.731232 249.368912,268.524994 249.345047,269.604706 
	C249.148239,269.890686 249.127350,269.831421 249.097397,269.821960 
z"/>
<path fill="#E9ECEF" opacity="1.000000" stroke="none" 
	d="
M267.126099,247.036224 
	C266.843140,247.207916 266.560181,247.379593 266.109497,247.738678 
	C265.685547,247.906677 265.429260,247.887268 264.795410,247.946442 
	C264.364075,246.634583 264.310333,245.244125 264.162201,243.497726 
	C265.550385,240.883392 266.907532,238.525787 268.577301,236.415527 
	C269.244720,235.572021 270.601532,235.274033 271.595886,235.369415 
	C270.339172,237.686722 269.131073,239.362350 267.817078,241.362427 
	C267.711151,241.686874 267.744049,241.708725 267.417969,241.951431 
	C266.870605,243.311691 266.649292,244.429260 266.428009,245.546814 
	C266.950745,245.303299 267.473511,245.059784 267.872803,245.408142 
	C267.541595,246.345413 267.333862,246.690826 267.126099,247.036224 
z"/>
<path fill="#E6E9ED" opacity="1.000000" stroke="none" 
	d="
M277.799652,240.719986 
	C277.673889,241.381241 277.355438,242.327118 276.479034,243.156219 
	C276.483032,242.361176 277.044983,241.682892 277.799652,240.719986 
z"/>
<path fill="#E8EBEE" opacity="1.000000" stroke="none" 
	d="
M276.115631,237.426422 
	C275.424805,237.662170 275.003510,237.545334 274.582245,237.428497 
	C274.690704,237.196808 274.817078,236.759735 274.904724,236.767380 
	C275.403320,236.810791 275.892700,236.960388 276.115631,237.426422 
z"/>
<path fill="#E6E9ED" opacity="1.000000" stroke="none" 
	d="
M275.716125,242.893326 
	C275.620667,243.301361 275.202911,243.670883 274.401093,243.999329 
	C274.475983,243.590439 274.934937,243.222626 275.716125,242.893326 
z"/>
<path fill="#193787" opacity="1.000000" stroke="none" 
	d="
M267.497986,247.132614 
	C267.333862,246.690826 267.541595,246.345413 267.894012,245.408539 
	C268.038666,244.817062 268.128845,244.744293 268.128845,244.744293 
	C269.033356,246.151642 269.937836,247.558990 270.785095,249.396744 
	C270.727875,249.827148 270.694916,249.762863 270.689911,249.798523 
	C269.746552,248.965790 268.808197,248.097397 267.497986,247.132614 
z"/>
<path fill="#1B3988" opacity="1.000000" stroke="none" 
	d="
M268.064026,244.366409 
	C268.128845,244.744293 268.038666,244.817062 268.017456,244.816666 
	C267.473511,245.059784 266.950745,245.303299 266.428009,245.546814 
	C266.649292,244.429260 266.870605,243.311691 267.398010,241.946686 
	C267.802490,242.462326 267.900848,243.225433 268.064026,244.366409 
z"/>
<path fill="#E7E9ED" opacity="1.000000" stroke="none" 
	d="
M262.437317,239.894623 
	C262.553894,239.056305 263.027527,238.288925 263.773865,237.739899 
	C263.629150,238.627365 263.211731,239.296448 262.437317,239.894623 
z"/>
<path fill="#1F3C8A" opacity="1.000000" stroke="none" 
	d="
M259.117371,244.050354 
	C258.437866,244.102829 258.052368,244.135422 257.393921,244.272278 
	C257.702179,243.248947 258.283386,242.121353 259.482483,239.795013 
	C259.792023,241.959244 259.894684,242.677170 259.998657,243.697556 
	C259.803772,244.010162 259.607574,244.020325 259.117371,244.050354 
z"/>
<path fill="#CDD3E1" opacity="1.000000" stroke="none" 
	d="
M262.394409,250.476379 
	C262.120453,249.647324 262.010559,248.646652 261.996277,247.373138 
	C262.380188,247.522171 262.668488,247.944031 263.003693,248.663864 
	C262.886566,249.409485 262.722534,249.857132 262.394409,250.476379 
z"/>
<path fill="#213D8B" opacity="1.000000" stroke="none" 
	d="
M260.036438,244.202423 
	C260.359467,244.198380 260.718964,244.396774 261.078430,244.595184 
	C260.906982,244.755432 260.735504,244.915695 260.564026,245.075928 
	C260.400330,244.852219 260.236603,244.628525 260.036438,244.202423 
z"/>
</svg>